<svg xmlns="http://www.w3.org/2000/svg" version="1.1" xmlns:xlink="http://www.w3.org/1999/xlink" xmlns:svgjs="http://svgjs.dev/svgjs" width="100%" height="100%" viewBox="0 0 1000 600"><rect width="1000" height="600" x="0" y="0" fill="hsla(222, 47%, 11%, 1)"/><g><rect width="333.3333333333333" height="333.3333333333333" rx="13.333333333333334" ry="13.333333333333334" y="185.70987098856762" fill="hsla(199, 89%, 49%, 1)" transform="matrix(0.7645838394055361,0,0,0.7645838394055361,0,30.578601404171522)" x="163.48762512207028"/><path d="M369.8333814741064 349.74949528988105Q403.30169531147095 357.6154601572835 403.30169531147095 386.49782536539027L403.30169531147095 386.49782536539027Q403.30169531147095 406.177922794258 388.4201401569259 416.777234526781Q373.5689555231044 427.3765462593039 346.02289322683424 427.3765462593039L346.02289322683424 427.3765462593039L257.00689698607596 427.3765462593039L257.00689698607596 409.2149748666142L285.22111073826443 409.2149748666142L285.22111073826443 295.5077452776005L257.00689698607596 295.5077452776005L257.00689698607596 277.3765444056344L342.49991282290114 277.3765444056344Q366.3407715908968 277.3765444056344 379.3697249813046 288.0973382210516Q392.36830785098886 298.78776151574516 392.36830785098886 316.2811814525165L392.36830785098886 316.2811814525165Q392.36830785098886 328.09531401398186 386.3549447477237 336.5079482544083Q380.3415816444586 344.95095301555835 369.8333814741064 349.74949528988105L369.8333814741064 349.74949528988105ZM340.9813867867231 295.5077452776005L307.51307294935845 295.5077452776005L307.51307294935845 343.4020564586568L337.0332190926601 343.4020564586568Q352.339961537335 343.4020564586568 360.99555994354995 337.3886933553916Q369.62078782904143 331.3753302521265 369.62078782904143 318.92341675546635L369.62078782904143 318.92341675546635Q369.62078782904143 306.896690548936 361.5422293165741 301.21740317363003Q353.43330028338323 295.5077452776005 340.9813867867231 295.5077452776005L340.9813867867231 295.5077452776005ZM343.83621573473783 409.2149748666142Q380.5541752895235 409.2149748666142 380.5541752895235 384.7363351634237L380.5541752895235 384.7363351634237Q380.5541752895235 372.0414575009751 370.83560865798387 366.14957648060425Q361.0866715057207 360.25769546023326 343.59325156894937 360.01473129444486L343.59325156894937 360.01473129444486L307.51307294935845 360.01473129444486L307.51307294935845 409.2149748666142L343.83621573473783 409.2149748666142Z " fill="white" transform="matrix(0.7645838394055361,0,0,0.7645838394055361,0,30.578601404171522)"/><path d="M659.8525256562367 335.7718579089487Q683.4938306231778 341.328208168874 683.4938306231778 361.7300965750092L683.4938306231778 361.7300965750092Q683.4938306231778 375.63169876972603 672.9818166179136 383.1188271122509Q662.4912557024561 390.6059554547758 643.0333032478139 390.6059554547758L643.0333032478139 390.6059554547758L580.1542970244888 390.6059554547758L580.1542970244888 377.7770077503921L600.0842174548774 377.7770077503921L600.0842174548774 297.45663951425104L580.1542970244888 297.45663951425104L580.1542970244888 284.64914489967407L640.5447448302413 284.64914489967407Q657.3854203284706 284.64914489967407 666.5887958555285 292.2220856014256Q675.7707182927796 299.77357321337047 675.7707182927796 312.13055294200757L675.7707182927796 312.13055294200757Q675.7707182927796 320.4758048767989 671.5230065110607 326.41831075324427Q667.2752947293417 332.38226971949615 659.8525256562367 335.7718579089487L659.8525256562367 335.7718579089487ZM639.4720903399082 297.45663951425104L615.8307853729671 297.45663951425104L615.8307853729671 331.2881621393564L636.6831886650422 331.2881621393564Q647.4955459275997 331.2881621393564 653.6096765224981 327.04045035763744Q659.7023540275901 322.79273857591846 659.7023540275901 313.9969717551872L659.7023540275901 313.9969717551872Q659.7023540275901 305.5015481917492 653.995832139018 301.48982039790343Q648.2678571606394 297.45663951425104 639.4720903399082 297.45663951425104L639.4720903399082 297.45663951425104ZM641.4886807817344 377.7770077503921Q667.4254663579883 377.7770077503921 667.4254663579883 360.4858173662229L667.4254663579883 360.4858173662229Q667.4254663579883 351.51842582703836 660.5604776198566 347.35652640454595Q653.6740357919181 343.19462698205365 641.317056063281 343.0230022636003L641.317056063281 343.0230022636003L615.8307853729671 343.0230022636003L615.8307853729671 377.7770077503921L641.4886807817344 377.7770077503921ZM726.2712916976611 378.3991473547854L743.1119671958904 378.3991473547854L743.1119671958904 390.6059554547758L694.9283274901285 390.6059554547758L694.9283274901285 378.3991473547854L711.1468633839646 378.3991473547854L711.1468633839646 296.8559529996645L694.9283274901285 296.8559529996645L694.9283274901285 284.64914489967407L726.2712916976611 284.64914489967407L726.2712916976611 378.3991473547854ZM791.3170599914591 392.77271752524865Q780.6548743575482 392.77271752524865 771.3871395610705 387.9886784983631Q762.1194047645927 383.18318638167085 756.6274137740872 374.3874195609396Q751.1568758733886 365.5916527402084 751.1568758733886 354.30732750190435L751.1568758733886 354.30732750190435Q751.1568758733886 342.8728306349537 756.6274137740872 334.14142308364245Q762.1194047645927 325.43146862213774 771.3871395610705 320.62597650544564Q780.6548743575482 315.84193747856006 791.3170599914591 315.84193747856006L791.3170599914591 315.84193747856006Q801.8076209069167 315.84193747856006 811.0109964339746 320.62597650544564Q820.1929188712257 325.43146862213774 825.749269131151 334.227235442869Q831.3056193910764 343.0230022636003 831.3056193910764 354.30732750190435L831.3056193910764 354.30732750190435Q831.3056193910764 365.5916527402084 825.8994407597977 374.3874195609396Q820.493262128519 383.18318638167085 811.3113396912678 387.9886784983631Q802.1294172540166 392.77271752524865 791.3170599914591 392.77271752524865L791.3170599914591 392.77271752524865ZM791.3170599914591 380.5659094252582Q798.2678610888175 380.5659094252582 803.8242113487428 377.3264928644523Q809.3805616086682 374.08707630364637 812.5556189000541 368.1231173373944Q815.7092231016334 362.18061146094914 815.7092231016334 354.30732750190435L815.7092231016334 354.30732750190435Q815.7092231016334 346.43404354285946 812.5556189000541 340.4915376664142Q809.3805616086682 334.52757870016234 803.8242113487428 331.2881621393564Q798.2678610888175 328.0487455785505 791.3170599914591 328.0487455785505L791.3170599914591 328.0487455785505Q780.6548743575482 328.0487455785505 773.7684325296099 335.2355306637822Q766.9034437914783 342.42231574901376 766.9034437914783 354.30732750190435L766.9034437914783 354.30732750190435Q766.9034437914783 366.19233925479483 773.7684325296099 373.3791243400265Q780.6548743575482 380.5659094252582 791.3170599914591 380.5659094252582L791.3170599914591 380.5659094252582ZM901.2855983404066 376.8545248887057Q911.1754727412775 376.8545248887057 917.2681502463695 381.81018863404455Q923.3822808412682 386.74439928957673 923.3822808412682 395.71179082876125L923.3822808412682 395.71179082876125Q923.3822808412682 404.3573860208459 916.8819946298496 410.83621914245776Q910.4031615082379 417.33650535387625 899.4406326170337 420.81190590255534Q888.456650636023 424.28730645123454 875.649156021446 424.28730645123454L875.649156021446 424.28730645123454Q860.052759732003 424.28730645123454 850.0770729719053 418.4949722034359Q840.1228393016144 412.7026379556373 840.1228393016144 402.66259192611966L840.1228393016144 402.66259192611966Q840.1228393016144 398.1788961565274 842.5041322701537 394.23152763210163Q844.9068783284998 390.3056121974825 848.6182628650523 387.3665388939699L848.6182628650523 387.3665388939699Q845.5290179328931 385.04960519485047 843.8985831075868 381.8745479034645Q842.2896013720872 378.72094370188523 842.2896013720872 375.15973079397946L842.2896013720872 375.15973079397946Q842.2896013720872 369.4532089054074 845.5290179328931 364.88370077658857Q848.7684344936989 360.3356457375763 854.0244414963311 357.24640080541695L854.0244414963311 357.24640080541695Q848.7684344936989 350.74611459399847 848.7684344936989 342.42231574901376L848.7684344936989 342.42231574901376Q848.7684344936989 334.0770638142224 853.6382858798112 328.0487455785505Q858.5081372659234 322.0204273428786 866.0596248778683 318.9311824107194Q873.6325655796198 315.84193747856006 881.5058495386646 315.84193747856006L881.5058495386646 315.84193747856006Q890.6234127064957 315.84193747856006 898.3465250368939 319.2529787578192L898.3465250368939 319.2529787578192Q901.13542671176 311.20807008032114 907.3782758454986 307.0461706578288Q913.6425780690437 302.8628181455298 922.2881732611283 302.56247488823647L922.2881732611283 302.56247488823647L922.2881732611283 315.2197978741669Q916.2598550254564 315.54159422126673 912.1837679621907 317.236388315993Q908.0862278091183 318.9311824107194 904.9969828769591 323.1145349230183L904.9969828769591 323.1145349230183Q914.5650609307302 330.3656792776699 914.5650609307302 341.9503477732672L914.5650609307302 341.9503477732672Q914.5650609307302 350.29559970805866 909.7810219038446 356.32391794373046Q904.9969828769591 362.33078308959574 897.3382298159809 365.42002802175506Q889.7009298448094 368.5092729539144 881.5058495386646 368.5092729539144L881.5058495386646 368.5092729539144Q869.6208377857741 368.5092729539144 860.2029313606496 362.6525794366957L860.2029313606496 362.6525794366957Q855.5690639624107 366.814478859188 855.5690639624107 371.5985178860736L855.5690639624107 371.5985178860736Q855.5690639624107 375.63169876972603 858.72266816399 377.8628201096188Q861.8977254553758 380.09394144951165 867.4540757153012 380.09394144951165L867.4540757153012 380.09394144951165Q872.7100827179333 380.09394144951165 883.2220967231975 378.549318983432L883.2220967231975 378.549318983432Q887.3839961456899 377.94863246884546 892.1680351725755 377.3908521338722Q896.952074199461 376.8545248887057 901.2855983404066 376.8545248887057L901.2855983404066 376.8545248887057ZM881.6774742571179 326.65429474111755Q874.1045335553664 326.65429474111755 868.8485265527341 331.05217815148313Q863.5925195501021 335.47151465165547 863.5925195501021 342.42231574901376L863.5925195501021 342.42231574901376Q863.5925195501021 349.37311684637217 868.7627141935076 353.53501626886447Q873.9543619267197 357.6969156913569 881.6774742571179 357.6969156913569L881.6774742571179 357.6969156913569Q889.7009298448094 357.6969156913569 894.7209528595682 353.38484464021786Q899.7409758743271 349.0513204992722 899.7409758743271 341.9503477732672L899.7409758743271 341.9503477732672Q899.7409758743271 334.9995466759089 894.5707812309215 330.8376472534165Q889.4005865875162 326.65429474111755 881.6774742571179 326.65429474111755L881.6774742571179 326.65429474111755ZM877.8159180919189 411.75870200414414Q885.9895453082569 411.75870200414414 893.3265020221352 409.9137362807713Q900.6634587360135 408.0687705573984 905.061342146379 404.5933700087192Q909.4806786465514 401.11796946004 909.4806786465514 396.63427369044774L909.4806786465514 396.63427369044774Q909.4806786465514 388.76098973140296 898.0461817796007 388.76098973140296L898.0461817796007 388.76098973140296Q894.9569368474414 388.76098973140296 891.2455523108889 389.21150461734277Q887.5341677743365 389.68347259308933 883.9944079562373 390.3056121974825L883.9944079562373 390.3056121974825Q879.6608838152916 391.0779234305224 874.6408608005329 391.6786099451089Q869.6208377857741 392.3007495495021 864.8367987588884 392.3007495495021L864.8367987588884 392.3007495495021Q860.6534462465895 392.3007495495021 856.3413751954505 391.228095059169L856.3413751954505 391.228095059169Q853.2521302632912 394.7678548772681 853.2521302632912 399.57334699396034L853.2521302632912 399.57334699396034Q853.2521302632912 405.2798688825323 859.730963384903 408.5192854433382Q866.2312495963215 411.75870200414414 877.8159180919189 411.75870200414414L877.8159180919189 411.75870200414414ZM953.1806225827212 301.3181956794501Q948.2464119271889 301.3181956794501 944.8353706479298 298.7009187230374Q941.4457824584772 296.0836417666247 941.4457824584772 292.0504608829723L941.4457824584772 292.0504608829723Q941.4457824584772 287.88856146047993 944.8353706479298 285.18547214484056Q948.2464119271889 282.48238282920124 953.1806225827212 282.48238282920124L953.1806225827212 282.48238282920124Q958.4366295853532 282.48238282920124 961.8262177748057 285.18547214484056Q965.237259054065 287.88856146047993 965.237259054065 292.0504608829723L965.237259054065 292.0504608829723Q965.237259054065 296.0836417666247 961.8262177748057 298.7009187230374Q958.4366295853532 301.3181956794501 953.1806225827212 301.3181956794501L953.1806225827212 301.3181956794501ZM962.4483573791989 378.3991473547854L978.988689620135 378.3991473547854L978.988689620135 390.6059554547758L930.933768453213 390.6059554547758L930.933768453213 378.3991473547854L947.3239290655025 378.3991473547854L947.3239290655025 330.0653360203767L930.933768453213 330.0653360203767L930.933768453213 317.8585279203863L962.4483573791989 317.8585279203863L962.4483573791989 378.3991473547854ZM1032.8788512144693 290.2054951595994Q1025.777878488464 290.2054951595994 1021.4658074373251 294.6891909291917Q1017.1322832963795 299.17288669878394 1017.1322832963795 307.0461706578288L1017.1322832963795 307.0461706578288L1017.1322832963795 317.8585279203863L1040.3016202875742 317.8585279203863L1040.3016202875742 330.0653360203767L1017.1322832963795 330.0653360203767L1017.1322832963795 378.3991473547854L1038.456654564201 378.3991473547854L1038.456654564201 390.6059554547758L985.76786599904 390.6059554547758L985.76786599904 378.3991473547854L1002.1580266113297 378.3991473547854L1002.1580266113297 330.0653360203767L985.76786599904 330.0653360203767L985.76786599904 317.8585279203863L1002.1580266113297 317.8585279203863L1002.1580266113297 307.49668554376865Q1002.1580266113297 293.144568463112 1010.0956698397944 285.27128450406724Q1018.054766158066 277.37654745521576 1031.3342287483893 277.37654745521576L1031.3342287483893 277.37654745521576Q1038.1348582171013 277.37654745521576 1043.777020836253 279.15715390916864Q1049.4191834554053 280.9377603631216 1056.8204994387033 284.3273485525741L1056.8204994387033 284.3273485525741L1051.264149178778 296.0836417666247Q1046.4801101518924 293.2947400917587 1042.082226741527 291.7501176256791Q1037.6843433311615 290.2054951595994 1032.8788512144693 290.2054951595994L1032.8788512144693 290.2054951595994ZM1144.413465119303 317.8585279203863L1144.413465119303 330.0653360203767L1132.978968252352 330.0653360203767L1102.3868621880529 398.6294110424672Q1095.908029066441 413.0029812129306 1087.7987611195226 420.18976629816217Q1079.6894931726047 427.37655138339386 1068.8771359100474 427.37655138339386L1068.8771359100474 427.37655138339386Q1062.8488176743754 427.37655138339386 1057.978966288263 425.4457733007943Q1053.1305679919578 423.51499521819477 1047.402593013579 419.8036106816423L1047.402593013579 419.8036106816423L1053.5810828778976 408.218942186045Q1061.4543668369424 413.92546407461697 1068.8771359100474 413.92546407461697L1068.8771359100474 413.92546407461697Q1075.5275937501124 413.92546407461697 1080.7621476629379 409.677752292898Q1086.01815466557 405.430040511179 1090.0298824594156 396.1623057147012L1090.0298824594156 396.1623057147012L1091.1239900395553 393.695200386935L1059.9097443708629 330.0653360203767L1047.8745609893258 330.0653360203767L1047.8745609893258 317.8585279203863L1088.6568847117892 317.8585279203863L1088.6568847117892 328.971228440237L1076.1282802646988 328.971228440237L1098.074791136914 377.7770077503921L1119.549334033382 328.971228440237L1107.642869190685 328.971228440237L1107.642869190685 317.8585279203863L1144.413465119303 317.8585279203863Z " fill="white" transform="matrix(0.7645838394055361,0,0,0.7645838394055361,0,30.578601404171522)"/></g></svg>